custom-analysis
version=1
nRows=6
nColumns=98
inDegrees=no

This file contains tibia displacement and acting force.

Units are S.I. units (seconds, meters, Newtons, ...)
Angles are in degrees.

endheader
time	APT	SIT	knee_angle	aACL_R_force	pACL_R_force	aPCL_R_force	pPCL_R_force	aMCL_R_force	mMCL_R_force	pMCL_R_force	aLCL_R_force	mLCL_R_force	pLCL_R_force	aPCL_L_force	pPCL_L_force	aMCL_L_force	aLCL_L_force	aACL_R_length	pACL_R_length	aPCL_R_length	pPCL_R_length	aMCL_R_length	mMCL_R_length	pMCL_R_length	aLCL_R_length	mLCL_R_length	pLCL_R_length	aPCL_L_length	pPCL_L_length	aMCL_L_length	aLCL_L_length	aACL_R_strain	pACL_R_strain	aPCL_R_strain	pPCL_R_strain	aMCL_R_strain	mMCL_R_strain	pMCL_R_strain	aLCL_R_strain	mLCL_R_strain	pLCL_R_strain	aPCL_L_strain	pPCL_L_strain	aMCL_L_strain	aLCL_L_strain	femur_lat_meniscii_r.femur_lat_r.force.X	femur_lat_meniscii_r.femur_lat_r.force.Y	femur_lat_meniscii_r.femur_lat_r.force.Z	femur_lat_meniscii_r.femur_lat_r.torque.X	femur_lat_meniscii_r.femur_lat_r.torque.Y	femur_lat_meniscii_r.femur_lat_r.torque.Z	femur_lat_meniscii_r.meniscus_lat_r.force.X	femur_lat_meniscii_r.meniscus_lat_r.force.Y	femur_lat_meniscii_r.meniscus_lat_r.force.Z	femur_lat_meniscii_r.meniscus_lat_r.torque.X	femur_lat_meniscii_r.meniscus_lat_r.torque.Y	femur_lat_meniscii_r.meniscus_lat_r.torque.Z	femur_med_meniscii_r.femur_med_r.force.X	femur_med_meniscii_r.femur_med_r.force.Y	femur_med_meniscii_r.femur_med_r.force.Z	femur_med_meniscii_r.femur_med_r.torque.X	femur_med_meniscii_r.femur_med_r.torque.Y	femur_med_meniscii_r.femur_med_r.torque.Z	femur_med_meniscii_r.meniscus_med_r.force.X	femur_med_meniscii_r.meniscus_med_r.force.Y	femur_med_meniscii_r.meniscus_med_r.force.Z	femur_med_meniscii_r.meniscus_med_r.torque.X	femur_med_meniscii_r.meniscus_med_r.torque.Y	femur_med_meniscii_r.meniscus_med_r.torque.Z	femur_med_tibia_r.tibia_upper_r.force.X	femur_med_tibia_r.tibia_upper_r.force.Y	femur_med_tibia_r.tibia_upper_r.force.Z	femur_med_tibia_r.tibia_upper_r.torque.X	femur_med_tibia_r.tibia_upper_r.torque.Y	femur_med_tibia_r.tibia_upper_r.torque.Z	femur_med_tibia_r.femur_med_r.force.X	femur_med_tibia_r.femur_med_r.force.Y	femur_med_tibia_r.femur_med_r.force.Z	femur_med_tibia_r.femur_med_r.torque.X	femur_med_tibia_r.femur_med_r.torque.Y	femur_med_tibia_r.femur_med_r.torque.Z	femur_lat_tibia_r.tibia_upper_r.force.X	femur_lat_tibia_r.tibia_upper_r.force.Y	femur_lat_tibia_r.tibia_upper_r.force.Z	femur_lat_tibia_r.tibia_upper_r.torque.X	femur_lat_tibia_r.tibia_upper_r.torque.Y	femur_lat_tibia_r.tibia_upper_r.torque.Z	femur_lat_tibia_r.femur_lat_r.force.X	femur_lat_tibia_r.femur_lat_r.force.Y	femur_lat_tibia_r.femur_lat_r.force.Z	femur_lat_tibia_r.femur_lat_r.torque.X	femur_lat_tibia_r.femur_lat_r.torque.Y	femur_lat_tibia_r.femur_lat_r.torque.Z	femur_lat_meniscii_force_r	femur_med_meniscii_force_r	femur_lat_tibia_force_r	femur_med_tibia_force_r
      0.20961608	      0.01354414	      0.02611268	     81.23322924	      1.20517920	      0.00000000	    962.27973459	    607.57185787	     24.78982772	     11.05656378	      0.00000000	      0.00000000	      0.00000000	      0.00000000	      0.00000000	      0.00000000	      0.00000001	      0.00000000	      0.03103536	      0.02442081	      0.03715499	      0.03394059	      0.06145735	      0.05990342	      0.05655038	      0.05018729	      0.04475056	      0.03974706	      0.01525851	      0.01651186	      0.06550154	      0.04489616	      0.00096310	     -0.02545565	      0.19487491	      0.13560020	      0.02382850	      0.00183838	     -0.03707973	     -0.10343338	     -0.20540351	     -0.24063786	      0.00000079	     -0.32847694	      0.00000060	     -0.00000086	    191.35307446	    114.00783815	      7.97552721	     -5.77800958	      4.42494834	     76.02509473	   -191.35307446	   -114.00783815	     -7.97552721	      2.92404004	     -5.12985364	      2.52527046	      0.04004361	      0.00113955	     -0.02521969	      0.01004296	     -0.00062393	      0.01591748	     -0.04004361	     -0.00113955	      0.02521969	     -0.00009464	      0.00120523	     -0.00009536	   -885.23356479	   -365.35273771	    311.83292317	     -8.25549821	     21.78217421	      2.26294768	    885.23356479	    365.35273771	   -311.83292317	    132.16020926	    -15.59106745	    356.73233006	   -283.20835647	   -127.07828576	    -75.81735889	      4.10474096	     -9.70477141	      0.93451505	    283.20835647	    127.07828576	     75.81735889	    -33.67880912	      6.92644147	    114.19332337	    222.88426436	      0.04733732	    319.53737777	   1007.15483375
      0.20966950	      0.01354217	      0.02612294	     81.26227463	      1.29199764	      0.00000000	    962.62759804	    607.68561117	     24.83016985	     11.06784620	      0.00000000	      0.00000000	      0.00000000	      0.00000000	      0.00000000	      0.00000000	      0.00000001	      0.00000000	      0.03103553	      0.02442243	      0.03715727	      0.03394242	      0.06145890	      0.05990423	      0.05655159	      0.05018431	      0.04474717	      0.03974412	      0.01525851	      0.01651186	      0.06550154	      0.04489616	      0.00096858	     -0.02539114	      0.19494814	      0.13566130	      0.02385423	      0.00185195	     -0.03705919	     -0.10348654	     -0.20546369	     -0.24069412	      0.00000079	     -0.32847694	      0.00000060	     -0.00000086	    191.27648238	    113.74160978	      8.02594508	     -5.79196843	      4.42353732	     75.99556655	   -191.27648238	   -113.74160978	     -8.02594508	      2.91754041	     -5.12997545	      2.52003319	      0.03974341	      0.00111118	     -0.02500375	      0.00995666	     -0.00061903	      0.01579813	     -0.03974341	     -0.00111118	      0.02500375	     -0.00009330	      0.00119530	     -0.00009473	   -885.42368908	   -364.51269358	    312.07204866	     -8.24151969	     21.79170283	      2.24546548	    885.42368908	    364.51269358	   -312.07204866	    132.24235660	    -15.59445216	    356.81346172	   -283.38608295	   -126.92733677	    -76.02203757	      4.10272573	     -9.71816235	      0.93192196	    283.38608295	    126.92733677	     76.02203757	    -33.75850134	      6.93295972	    114.26562756	    222.68422104	      0.04696766	    319.68354826	   1007.09164256
      0.20979618	      0.01353756	      0.02614727	     81.33115972	      1.41349697	      0.00000000	    963.48723156	    608.07668154	     24.87979927	     11.07603397	      0.00000000	      0.00000000	      0.00000000	      0.00000000	      0.00000000	      0.00000000	      0.00000001	      0.00000000	      0.03103597	      0.02442628	      0.03716264	      0.03394672	      0.06146257	      0.05990616	      0.05655445	      0.05017727	      0.04473915	      0.03973715	      0.01525851	      0.01651186	      0.06550154	      0.04489616	      0.00098273	     -0.02523739	      0.19512092	      0.13580516	      0.02391534	      0.00188414	     -0.03701040	     -0.10361240	     -0.20560615	     -0.24082728	      0.00000079	     -0.32847694	      0.00000060	     -0.00000086	    191.09871421	    112.91824132	      7.99113852	     -5.75917882	      4.41793566	     75.92825811	   -191.09871421	   -112.91824132	     -7.99113852	      2.89661297	     -5.12382785	      2.50121170	      0.03900303	      0.00107122	     -0.02447818	      0.00974692	     -0.00060699	      0.01550356	     -0.03900303	     -0.00107122	      0.02447818	     -0.00009030	      0.00117105	     -0.00009221	   -885.89201352	   -363.00034190	    312.30105292	     -8.21128956	     21.80110945	      2.22342057	    885.89201352	    363.00034190	   -312.30105292	    132.30800989	    -15.59847675	    357.00640010	   -283.97700036	   -125.94972978	    -76.10882562	      4.07799691	     -9.73766835	      0.89861346	    283.97700036	    125.94972978	     76.10882562	    -33.77195198	      6.94654224	    114.51430741	    222.11057177	      0.04606045	    319.84187422	   1007.02822974
      0.20983648	      0.01353611	      0.02615501	     81.35307829	      1.43599721	      0.00000000	    963.76762855	    608.22548673	     24.88616958	     11.07490993	      0.00000000	      0.00000000	      0.00000000	      0.00000000	      0.00000000	      0.00000000	      0.00000001	      0.00000000	      0.03103612	      0.02442751	      0.03716435	      0.03394808	      0.06146373	      0.05990677	      0.05655537	      0.05017503	      0.04473660	      0.03973494	      0.01525851	      0.01651186	      0.06550154	      0.04489616	      0.00098744	     -0.02518833	      0.19517570	      0.13585071	      0.02393480	      0.00189439	     -0.03699486	     -0.10365239	     -0.20565141	     -0.24086956	      0.00000079	     -0.32847694	      0.00000060	     -0.00000086	    191.10622897	    112.89137186	      8.09297164	     -5.79961335	      4.41864739	     75.93026043	   -191.10622897	   -112.89137186	     -8.09297164	      2.89689152	     -5.12759067	      2.50345085	      0.03876587	      0.00106412	     -0.02431201	      0.00968067	     -0.00060315	      0.01540916	     -0.03876587	     -0.00106412	      0.02431201	     -0.00008940	      0.00116336	     -0.00009121	   -886.11868380	   -362.30202783	    312.27945355	     -8.19756348	     21.80147195	      2.20694809	    886.11868380	    362.30202783	   -312.27945355	    132.28698310	    -15.59988225	    357.10199919	   -284.07511372	   -125.94651197	    -76.12492127	      4.07718855	     -9.74129812	      0.90170129	    284.07511372	    125.94651197	     76.12492127	    -33.77796540	      6.94883122	    114.55264508	    222.10706604	      0.04577116	    319.93155167	   1006.96948229
      0.20985663	      0.01353538	      0.02615888	     81.36403795	      0.67608647	      0.00000000	    966.02385618	    614.13685421	     26.98690363	     13.68577968	      0.00000000	      0.00000000	      0.00000000	      0.00000000	      0.00000000	      0.00000000	      0.00000001	      0.00000000	      0.03103619	      0.02442813	      0.03716520	      0.03394876	      0.06146432	      0.05990708	      0.05655582	      0.05017391	      0.04473533	      0.03973383	      0.01525851	      0.01651186	      0.06550154	      0.04489616	      0.00098982	     -0.02516379	      0.19520307	      0.13587346	      0.02394452	      0.00189951	     -0.03698709	     -0.10367238	     -0.20567403	     -0.24089068	      0.00000079	     -0.32847694	      0.00000060	     -0.00000086	    180.67064117	    113.24607054	     10.83575000	     -6.91902277	      4.20533077	     71.69940293	   -180.67064117	   -113.24607054	    -10.83575000	      2.93549617	     -4.96208325	      2.62914369	      0.03607201	      0.00125476	     -0.02269107	      0.00903785	     -0.00056183	      0.01433602	     -0.03607201	     -0.00125476	      0.02269107	     -0.00008529	      0.00108499	     -0.00007520	   -882.27004390	   -367.03806642	    309.17618435	     -8.20563760	     21.63908050	      2.44616644	    882.27004390	    367.03806642	   -309.17618435	    131.08476415	    -15.51175519	    355.47769579	   -282.63548222	   -127.80152490	    -77.21957883	      4.13636441	     -9.75180398	      0.99971183	    282.63548222	    127.80152490	     77.21957883	    -34.26435511	      6.93300286	    113.93857710	    213.50401999	      0.04263389	    319.65435853	   1004.34420670
      0.20987678	      0.01353435	      0.02616256	     81.37494548	     -1.27834813	      0.00000000	    971.70957356	    629.40219978	     32.46001236	     20.48223726	      0.00000000	      0.00000000	      0.00000000	      0.00000000	      0.00000000	      0.00000000	      0.00000001	      0.00000000	      0.03103616	      0.02442872	      0.03716635	      0.03394976	      0.06146505	      0.05990757	      0.05655649	      0.05017300	      0.04473428	      0.03973299	      0.01525851	      0.01651186	      0.06550154	      0.04489616	      0.00098895	     -0.02514026	      0.19524014	      0.13590687	      0.02395675	      0.00190776	     -0.03697567	     -0.10368862	     -0.20569266	     -0.24090681	      0.00000079	     -0.32847694	      0.00000060	     -0.00000086	    153.67560057	    112.86081406	     17.06541090	     -9.43343660	      3.64265679	     60.77329433	   -153.67560057	   -112.86081406	    -17.06541090	      2.99193644	     -4.49935932	      2.89874715	      0.02900187	      0.00156271	     -0.01840174	      0.00733490	     -0.00045307	      0.01152131	     -0.02900187	     -0.00156271	      0.01840174	     -0.00007319	      0.00087800	     -0.00004048	   -871.29049988	   -378.32914443	    301.16152030	     -8.22068056	     21.20910835	      3.03040538	    871.29049988	    378.32914443	   -301.16152030	    127.96906679	    -15.27096687	    350.87338413	   -278.72359739	   -132.12052481	    -79.80306958	      4.27546425	     -9.76395423	      1.23296899	    278.72359739	    132.12052481	     79.80306958	    -35.41155872	      6.88481974	    112.28092301	    191.42879045	      0.03438277	    318.60823394	    996.48298431
